<svg width="252" height="124" viewBox="0 0 252 124" fill="none" xmlns="http://www.w3.org/2000/svg">
<g filter="url(#filter0_d_401_10)">
<path d="M42.836 6.52V20.984H104.276V6.52H42.836ZM60.756 19.448L46.42 22.392C56.916 67.704 75.22 101.24 111.316 117.88C113.62 114.168 118.1 108.152 121.556 105.336C87.764 91.384 69.204 59.256 60.756 19.448ZM100.948 6.52V9.592C94.42 62.2 70.228 93.048 34.132 105.336C37.204 108.408 40.916 114.296 42.836 118.264C82.644 102.264 107.988 70.648 115.54 9.07999L105.812 5.88L103.38 6.52H100.948ZM7.252 11.768C15.572 15.608 26.068 22.008 30.932 26.616L39.38 14.2C34.004 9.592 23.252 3.95999 15.316 0.631996L7.252 11.768ZM0.852 46.456C9.172 50.168 20.18 56.312 25.428 60.792L33.364 47.864C27.732 43.64 16.468 38.136 8.404 34.936L0.852 46.456ZM4.18 106.616L16.468 116.984C24.148 104.568 32.084 89.976 38.74 76.536L28.116 66.296C20.564 81.016 10.964 97.016 4.18 106.616ZM129.364 54.392V69.752H247.636V54.392H129.364ZM180.564 34.04V100.472C180.564 102.648 179.668 103.288 176.852 103.416C173.908 103.416 164.052 103.416 155.092 103.032C157.652 107.256 160.724 114.296 161.748 118.904C173.396 119.032 182.356 118.52 188.5 116.088C194.644 113.656 196.692 109.432 196.692 100.728V34.04H180.564ZM142.804 6.13599V21.368H223.444V6.13599H142.804ZM218.452 6.13599V9.71999C211.924 18.04 195.924 30.456 182.356 37.368C185.3 40.056 190.036 45.176 192.34 48.504C208.084 40.184 225.748 26.616 237.78 14.2L226.004 5.368L222.548 6.13599H218.452Z" fill="url(#paint0_linear_401_10)"/>
</g>
<defs>
<filter id="filter0_d_401_10" x="0.851997" y="0.632019" width="250.784" height="122.4" filterUnits="userSpaceOnUse" color-interpolation-filters="sRGB">
<feFlood flood-opacity="0" result="BackgroundImageFix"/>
<feColorMatrix in="SourceAlpha" type="matrix" values="0 0 0 0 0 0 0 0 0 0 0 0 0 0 0 0 0 0 127 0" result="hardAlpha"/>
<feOffset dx="2" dy="2"/>
<feGaussianBlur stdDeviation="1"/>
<feComposite in2="hardAlpha" operator="out"/>
<feColorMatrix type="matrix" values="0 0 0 0 0.984314 0 0 0 0 0.984314 0 0 0 0 0.984314 0 0 0 0.25 0"/>
<feBlend mode="normal" in2="BackgroundImageFix" result="effect1_dropShadow_401_10"/>
<feBlend mode="normal" in="SourceGraphic" in2="effect1_dropShadow_401_10" result="shape"/>
</filter>
<linearGradient id="paint0_linear_401_10" x1="-8" y1="-4" x2="205.812" y2="180.364" gradientUnits="userSpaceOnUse">
<stop offset="0.362169" stop-color="#B48EAD"/>
<stop offset="0.721138" stop-color="#88C0D0"/>
</linearGradient>
</defs>
</svg>
