<svg width="400" height="225" viewBox="0 0 400 225" fill="none" xmlns="http://www.w3.org/2000/svg">
<rect width="400" height="225" fill="#2E3440"/>
<g filter="url(#filter0_d_402_3)">
<path d="M118.336 63.52V77.984H179.776V63.52H118.336ZM136.256 76.448L121.92 79.392C132.416 124.704 150.72 158.24 186.816 174.88C189.12 171.168 193.6 165.152 197.056 162.336C163.264 148.384 144.704 116.256 136.256 76.448ZM176.448 63.52V66.592C169.92 119.2 145.728 150.048 109.632 162.336C112.704 165.408 116.416 171.296 118.336 175.264C158.144 159.264 183.488 127.648 191.04 66.08L181.312 62.88L178.88 63.52H176.448ZM82.752 68.768C91.072 72.608 101.568 79.008 106.432 83.616L114.88 71.2C109.504 66.592 98.752 60.96 90.816 57.632L82.752 68.768ZM76.352 103.456C84.672 107.168 95.68 113.312 100.928 117.792L108.864 104.864C103.232 100.64 91.968 95.136 83.904 91.936L76.352 103.456ZM79.68 163.616L91.968 173.984C99.648 161.568 107.584 146.976 114.24 133.536L103.616 123.296C96.064 138.016 86.464 154.016 79.68 163.616ZM204.864 111.392V126.752H323.136V111.392H204.864ZM256.064 91.04V157.472C256.064 159.648 255.168 160.288 252.352 160.416C249.408 160.416 239.552 160.416 230.592 160.032C233.152 164.256 236.224 171.296 237.248 175.904C248.896 176.032 257.856 175.52 264 173.088C270.144 170.656 272.192 166.432 272.192 157.728V91.04H256.064ZM218.304 63.136V78.368H298.944V63.136H218.304ZM293.952 63.136V66.72C287.424 75.04 271.424 87.456 257.856 94.368C260.8 97.056 265.536 102.176 267.84 105.504C283.584 97.184 301.248 83.616 313.28 71.2L301.504 62.368L298.048 63.136H293.952Z" fill="url(#paint0_linear_402_3)"/>
</g>
<defs>
<filter id="filter0_d_402_3" x="76.352" y="57.632" width="250.784" height="122.4" filterUnits="userSpaceOnUse" color-interpolation-filters="sRGB">
<feFlood flood-opacity="0" result="BackgroundImageFix"/>
<feColorMatrix in="SourceAlpha" type="matrix" values="0 0 0 0 0 0 0 0 0 0 0 0 0 0 0 0 0 0 127 0" result="hardAlpha"/>
<feOffset dx="2" dy="2"/>
<feGaussianBlur stdDeviation="1"/>
<feComposite in2="hardAlpha" operator="out"/>
<feColorMatrix type="matrix" values="0 0 0 0 0.984314 0 0 0 0 0.984314 0 0 0 0 0.984314 0 0 0 0.25 0"/>
<feBlend mode="normal" in2="BackgroundImageFix" result="effect1_dropShadow_402_3"/>
<feBlend mode="normal" in="SourceGraphic" in2="effect1_dropShadow_402_3" result="shape"/>
</filter>
<linearGradient id="paint0_linear_402_3" x1="0" y1="89" x2="126.409" y2="303.919" gradientUnits="userSpaceOnUse">
<stop offset="0.292939" stop-color="#B48EAD"/>
<stop offset="0.864519" stop-color="#88C0D0"/>
</linearGradient>
</defs>
</svg>
