<svg width="280" height="280" viewBox="0 0 280 280" fill="none" xmlns="http://www.w3.org/2000/svg">
<g clip-path="url(#clip0_401_5)">
<circle cx="140" cy="140" r="140" fill="#2E3440"/>
<g filter="url(#filter0_d_401_5)">
<path d="M79.252 101.64V112.488H125.332V101.64H79.252ZM92.692 111.336L81.94 113.544C89.812 147.528 103.54 172.68 130.612 185.16C132.34 182.376 135.7 177.864 138.292 175.752C112.948 165.288 99.028 141.192 92.692 111.336ZM122.836 101.64V103.944C117.94 143.4 99.796 166.536 72.724 175.752C75.028 178.056 77.812 182.472 79.252 185.448C109.108 173.448 128.116 149.736 133.78 103.56L126.484 101.16L124.66 101.64H122.836ZM52.564 105.576C58.804 108.456 66.676 113.256 70.324 116.712L76.66 107.4C72.628 103.944 64.564 99.72 58.612 97.224L52.564 105.576ZM47.764 131.592C54.004 134.376 62.26 138.984 66.196 142.344L72.148 132.648C67.924 129.48 59.476 125.352 53.428 122.952L47.764 131.592ZM50.26 176.712L59.476 184.488C65.236 175.176 71.188 164.232 76.18 154.152L68.212 146.472C62.548 157.512 55.348 169.512 50.26 176.712ZM144.148 137.544V149.064H232.852V137.544H144.148ZM182.548 122.28V172.104C182.548 173.736 181.876 174.216 179.764 174.312C177.556 174.312 170.164 174.312 163.444 174.024C165.364 177.192 167.668 182.472 168.436 185.928C177.172 186.024 183.892 185.64 188.5 183.816C193.108 181.992 194.644 178.824 194.644 172.296V122.28H182.548ZM154.228 101.352V112.776H214.708V101.352H154.228ZM210.964 101.352V104.04C206.068 110.28 194.068 119.592 183.892 124.776C186.1 126.792 189.652 130.632 191.38 133.128C203.188 126.888 216.436 116.712 225.46 107.4L216.628 100.776L214.036 101.352H210.964Z" fill="url(#paint0_linear_401_5)"/>
</g>
</g>
<defs>
<filter id="filter0_d_401_5" x="47.764" y="97.224" width="189.088" height="92.8" filterUnits="userSpaceOnUse" color-interpolation-filters="sRGB">
<feFlood flood-opacity="0" result="BackgroundImageFix"/>
<feColorMatrix in="SourceAlpha" type="matrix" values="0 0 0 0 0 0 0 0 0 0 0 0 0 0 0 0 0 0 127 0" result="hardAlpha"/>
<feOffset dx="2" dy="2"/>
<feGaussianBlur stdDeviation="1"/>
<feComposite in2="hardAlpha" operator="out"/>
<feColorMatrix type="matrix" values="0 0 0 0 0.984314 0 0 0 0 0.984314 0 0 0 0 0.984314 0 0 0 0.25 0"/>
<feBlend mode="normal" in2="BackgroundImageFix" result="effect1_dropShadow_401_5"/>
<feBlend mode="normal" in="SourceGraphic" in2="effect1_dropShadow_401_5" result="shape"/>
</filter>
<linearGradient id="paint0_linear_401_5" x1="8" y1="78" x2="221.812" y2="262.364" gradientUnits="userSpaceOnUse">
<stop offset="0.362169" stop-color="#B48EAD"/>
<stop offset="0.721138" stop-color="#88C0D0"/>
</linearGradient>
<clipPath id="clip0_401_5">
<rect width="280" height="280" rx="5" fill="white"/>
</clipPath>
</defs>
</svg>
